<?xml version="1.0" encoding="UTF-8"?>
<svg xmlns="http://www.w3.org/2000/svg" xmlns:xlink="http://www.w3.org/1999/xlink" viewBox="0 0 850.63 598.51">
  <defs>
    <style>
      .cls-1 {
        fill: #fff;
      }

      .cls-2 {
        fill: none;
      }

      .cls-3 {
        stroke: #000;
      }

      .cls-3, .cls-4 {
        stroke-miterlimit: 10;
      }

      .cls-5, .cls-4 {
        fill: #191919;
      }

      .cls-6 {
        clip-path: url(#clippath);
      }

      .cls-4 {
        stroke: #fff;
      }
    </style>
    <clipPath id="clippath">
      <rect class="cls-2" x=".5" y="35.63" width="448.17" height="316.92"/>
    </clipPath>
    <clipPath id="clippath-1">
      <rect class="cls-2" x=".5" y="35.63" width="448.17" height="316.92"/>
    </clipPath>
  </defs>
  <g id="Ebene_3" data-name="Ebene 3">
    <rect class="cls-4" x=".5" y=".5" width="849.63" height="597.51"/>
  </g>
  <g id="Ebene_1" data-name="Ebene 1">
    <g class="cls-6">
      <path class="cls-1" d="M159.89,274.44c13.3,4.48,23.1,10.08,31.22,14.73,9.59,5.48,17.19,10.84,22.58,14.92,1.72-3.32,6.82-11.35,13.41-17.53,2.42-2.28,6.01-4.9,6.59-5.27,3.76-2.38,5.98-3.34,8.11-3.76,3.18-.61,6.78.15,12.38,2.06,0,0,12.28,3.4,23.46,3.35,3.21-.01,5.46-.39,7.54-.89,1.24-.29,4.86-1.62,6.9-4.52,1.33-1.9,1.52-3.73,1.8-5.93.69-5.26-.85-9.83-1.55-11.86-1.32-3.82-2.44-4.69-2.06-6.96.3-1.79.82-3.48,3.09-5.16,1.02-.76,6.6-3.35,7.03-5.46.1-.49.28-1.64-.58-2.31-.49-.38-2.15-.58-2.84-.74-5.14-1.21-5.16-1.8-5.16-1.8-.02-.43,1.1-.89,3.35-1.8,2.02-.82,2.83-.99,4.13-1.8,1.15-.72,2-1.26,2.06-2.06.08-.98-1.11-1.38-2.32-2.84-1.38-1.66-2.18-3.95-2.06-5.93.11-1.79.95-2.97,2.32-4.9.84-1.18,2.56-3.36,5.67-5.67,3.86-2.87,4.41-3.1,6.45-4.64,3.51-2.65,1.29-7.73,1.29-7.73-1.83-5.23-18.21-19.29-21.92-22.43-2.92-2.47-5.22-4.51-6.45-7.99-1.2-3.42-.82-6.69-.52-9.28.61-5.21,2.04-6.32,2.58-10.83.47-3.93-.16-6.91-.77-9.8-2.11-9.97-7.74-18.46-10.57-22.43-5.06-7.1-13.82-19.13-30.17-28.62-12.04-6.99-22.61-9.36-29.39-10.83-6.2-1.34-15.24-3.42-32.74-2.06-34.67,2.68-55.59,19.11-55.59,19.11-6.45,4.88-17.5,14.63-26.17,31.39-3.09,6.23-6.31,14.41-8.22,24.32-.56,2.89-2.37,13.02-1.37,26.37.44,5.85.81,10.77,2.74,17.12,2.63,8.65,6.95,15.31,15.48,28.27,2.68,4.08,5,7.4,6.61,9.67,0,0,7.65,8.82,9.28,18.05.49,2.77.26,5.41.26,5.41-1.02,1.58-2.1,3.86-1.55,6.19,1.63,6.8,15.4,6.07,35.67,12.89Z"/>
    </g>
    <circle class="cls-5" cx="162.46" cy="197.5" r="17.21"/>
    <circle class="cls-5" cx="216.94" cy="157.45" r="28.06"/>
    <ellipse class="cls-5" cx="118.29" cy="236.31" rx="31.22" ry="32.83"/>
    <ellipse class="cls-5" cx="112.97" cy="158.9" rx="33.22" ry="31.97"/>
    <rect class="cls-5" x="181.69" y="101.87" width="5.58" height="49.88" transform="translate(-38.19 149.89) rotate(-40.42)"/>
    <rect class="cls-5" x="180.32" y="156.16" width="5.58" height="49.88" transform="translate(163.97 437.93) rotate(-130.42)"/>
    <rect class="cls-5" x="134.41" y="195.26" width="5.58" height="49.88" transform="translate(58.53 467.43) rotate(-130.42)"/>
    <rect class="cls-5" x="164.12" y="132.52" width="5.58" height="49.88" transform="translate(27.31 339.56) rotate(-95.86)"/>
    <circle class="cls-3" cx="261.83" cy="167.7" r="4.84"/>
    <circle class="cls-5" cx="158.88" cy="100.95" r="28.06"/>
  </g>
</svg>